<svg width="80" height="80" viewBox="0 0 80 80" fill="none" xmlns="http://www.w3.org/2000/svg">
<path fill-rule="evenodd" clip-rule="evenodd" d="M41.9768 77.5266L41.9401 77.5333L41.7034 77.65L41.6368 77.6633L41.5901 77.65L41.3534 77.5333C41.3179 77.5222 41.2912 77.5277 41.2734 77.55L41.2601 77.5833L41.2034 79.01L41.2201 79.0766L41.2534 79.12L41.6001 79.3666L41.6501 79.38L41.6901 79.3666L42.0368 79.12L42.0768 79.0666L42.0901 79.01L42.0334 77.5866C42.0245 77.5511 42.0056 77.5311 41.9768 77.5266ZM42.8601 77.15L42.8168 77.1566L42.2001 77.4666L42.1667 77.5L42.1568 77.5366L42.2168 78.97L42.2334 79.01L42.2601 79.0333L42.9301 79.3433C42.9723 79.3544 43.0045 79.3455 43.0268 79.3166L43.0401 79.27L42.9268 77.2233C42.9156 77.1833 42.8934 77.1588 42.8601 77.15ZM40.4767 77.1566C40.4621 77.1477 40.4445 77.1448 40.4277 77.1486C40.411 77.1523 40.3963 77.1623 40.3868 77.1766L40.3667 77.2233L40.2534 79.27C40.2556 79.31 40.2745 79.3366 40.3101 79.35L40.3601 79.3433L41.0301 79.0333L41.0634 79.0066L41.0768 78.97L41.1334 77.5366L41.1234 77.4966L41.0901 77.4633L40.4767 77.1566Z" fill="#96EDE3"/>
<path fill-rule="evenodd" clip-rule="evenodd" d="M55.1734 73.7766C50.3734 73.6 36.77 71.72 22.5234 57.4767C8.28004 43.23 6.40337 29.63 6.22337 24.8267C5.95671 17.5067 11.5634 10.3967 18.04 7.61999C18.82 7.28321 19.674 7.15499 20.5185 7.2479C21.3629 7.34082 22.1687 7.65168 22.8567 8.14999C28.19 12.0367 31.87 17.9167 35.03 22.54C35.7253 23.5558 36.0226 24.7918 35.8652 26.0126C35.7079 27.2335 35.1068 28.3537 34.1767 29.16L27.6734 33.99C27.3592 34.2169 27.138 34.5501 27.051 34.9277C26.9639 35.3054 27.0169 35.7018 27.2 36.0433C28.6734 38.72 31.2934 42.7066 34.2934 45.7066C37.2934 48.7066 41.47 51.5 44.3334 53.14C44.6924 53.3415 45.115 53.3979 45.5142 53.2974C45.9135 53.197 46.2591 52.9474 46.48 52.6L50.7134 46.1567C51.4917 45.1228 52.6398 44.4302 53.9173 44.2239C55.1948 44.0176 56.5026 44.3137 57.5667 45.05C62.2567 48.2967 67.73 51.9133 71.7367 57.0433C72.2755 57.7363 72.6182 58.5613 72.729 59.4321C72.8398 60.3029 72.7147 61.1874 72.3667 61.9933C69.5767 68.5033 62.5167 74.0466 55.1734 73.7766Z" fill="#96EDE3"/>
</svg>
